<svg width="131" height="40" viewBox="0 0 131 40" fill="none" xmlns="http://www.w3.org/2000/svg">
<path d="M39.0481 0.799561H42.9109V6.5513H48.8856V0.799561H52.7484V14.901H48.8856V9.49274H42.9109V14.901H39.0481V0.799561Z" fill="#2C2C2C"/>
<path d="M66.508 14.901L65.4915 12.4092H59.0906L58.0543 14.901H54.0865L60.4416 0.799561H64.4159L70.6267 14.901H66.508ZM60.2579 9.58642H64.3569L62.3304 4.55912L60.2579 9.58642Z" fill="#2C2C2C"/>
<path d="M80.5559 4.2095C79.8935 3.86601 79.2377 3.6974 78.595 3.6974C77.8473 3.6974 77.1718 3.87226 76.5553 4.22823C75.9454 4.5842 75.4601 5.07132 75.1059 5.69583C74.7518 6.32034 74.5747 7.01355 74.5747 7.77545C74.5747 8.53735 74.7518 9.23056 75.1059 9.85507C75.4601 10.4796 75.9388 10.9667 76.5553 11.3227C77.1652 11.6786 77.8473 11.8535 78.595 11.8535C79.1983 11.8535 79.8345 11.7036 80.4969 11.4101C81.1593 11.1166 81.7495 10.7106 82.2742 10.2048L84.5368 12.5155C83.7367 13.3211 82.7792 13.9581 81.6774 14.439C80.569 14.9136 79.4803 15.1509 78.3916 15.1509C76.9291 15.1509 75.6044 14.8324 74.4173 14.1829C73.2368 13.5397 72.3055 12.6591 71.63 11.5475C70.9545 10.4359 70.6135 9.18684 70.6135 7.80668C70.6135 6.439 70.9611 5.20247 71.6497 4.10333C72.3383 3.00419 73.2893 2.13612 74.4894 1.51161C75.6962 0.880855 77.0406 0.568604 78.5359 0.568604C79.6312 0.568604 80.7199 0.787179 81.7889 1.22434C82.8579 1.66149 83.7695 2.25478 84.5106 3.00419L82.2742 5.57717C81.7889 5.00887 81.2183 4.55298 80.5559 4.2095Z" fill="#2C2C2C"/>
<path d="M100.408 14.901H95.7842L91.8951 9.43029L90.0391 11.4037V14.901H86.1763V0.799561H90.0391V6.91352L95.594 0.799561H100.073L94.5841 6.61375L100.408 14.901Z" fill="#2C2C2C"/>
<path d="M38.9892 25.636H42.852V39.7374H38.9892V25.636Z" fill="#2C2C2C"/>
<path d="M45.7311 25.636H49.594V36.5961H55.8703V39.7312H45.7311V25.636Z" fill="#2C2C2C"/>
<path d="M58.8021 25.636H62.6649V36.5961H68.9412V39.7312H58.8021V25.636Z" fill="#2C2C2C"/>
<path d="M71.0989 25.636H74.9618V39.7374H71.0989V25.636Z" fill="#2C2C2C"/>
<path d="M88.3536 25.636H91.941V39.7374H88.5635L81.8478 31.3128V39.7374H78.2341V25.636H81.6379L88.3733 34.1231L88.3536 25.636Z" fill="#2C2C2C"/>
<path d="M106.383 26.3606C107.603 26.9913 108.56 27.8532 109.255 28.9523C109.95 30.0514 110.298 31.288 110.298 32.6556C110.298 34.0358 109.95 35.2848 109.255 36.3965C108.56 37.5081 107.603 38.3886 106.383 39.0319C105.163 39.6751 103.805 39.9999 102.297 39.9999C100.788 39.9999 99.4243 39.6814 98.211 39.0444C96.9911 38.4074 96.0336 37.5268 95.3384 36.409C94.6432 35.2911 94.2957 34.0421 94.2957 32.6556C94.2957 31.288 94.6432 30.0514 95.3384 28.9523C96.0336 27.8532 96.9911 26.9851 98.211 26.3606C99.4308 25.7298 100.788 25.4176 102.297 25.4176C103.805 25.4113 105.163 25.7298 106.383 26.3606ZM100.303 29.0772C99.6735 29.4394 99.1816 29.939 98.8143 30.576C98.4471 31.213 98.2634 31.9125 98.2634 32.6744C98.2634 33.455 98.4471 34.1607 98.8209 34.7977C99.1947 35.4347 99.6932 35.9343 100.31 36.309C100.926 36.6775 101.608 36.8648 102.336 36.8648C103.071 36.8648 103.74 36.6837 104.356 36.309C104.966 35.9406 105.451 35.4347 105.806 34.7977C106.16 34.1607 106.337 33.455 106.337 32.6744C106.337 31.9125 106.16 31.2068 105.806 30.576C105.451 29.939 104.973 29.4394 104.356 29.0772C103.746 28.715 103.071 28.5339 102.336 28.5339C101.608 28.5339 100.926 28.715 100.303 29.0772Z" fill="#2C2C2C"/>
<path d="M112.036 25.636H115.899V39.7374H112.036V25.636Z" fill="#2C2C2C"/>
<path d="M126.261 28.7901C125.369 28.5091 124.615 28.3655 124.012 28.3655C123.533 28.3655 123.159 28.4467 122.884 28.6153C122.608 28.7839 122.471 29.0274 122.471 29.3522C122.471 29.6582 122.589 29.9205 122.831 30.1266C123.067 30.3327 123.369 30.5013 123.717 30.6324C124.071 30.7636 124.589 30.926 125.278 31.1258C126.307 31.4068 127.153 31.6879 127.822 31.9689C128.491 32.2499 129.068 32.6808 129.541 33.2679C130.019 33.8487 130.262 34.6106 130.262 35.5473C130.262 36.4841 130 37.2897 129.482 37.9517C128.963 38.6137 128.249 39.1133 127.337 39.4505C126.425 39.7878 125.415 39.9564 124.307 39.9564C123.081 39.9564 121.861 39.7503 120.641 39.3444C119.421 38.9384 118.372 38.3764 117.486 37.6644L118.988 34.7854C119.736 35.4162 120.621 35.9283 121.638 36.3342C122.661 36.7339 123.566 36.94 124.353 36.94C124.93 36.94 125.383 36.8401 125.717 36.6402C126.045 36.4404 126.215 36.1469 126.215 35.7534C126.215 35.4287 126.091 35.1664 125.848 34.9478C125.599 34.7355 125.291 34.5606 124.917 34.4357C124.543 34.3108 124.018 34.1609 123.343 33.9861C122.326 33.7175 121.493 33.449 120.831 33.1742C120.169 32.8994 119.605 32.481 119.132 31.9252C118.66 31.3694 118.424 30.6262 118.424 29.7019C118.424 28.8338 118.667 28.0657 119.152 27.41C119.637 26.7542 120.326 26.2484 121.225 25.8924C122.117 25.5364 123.159 25.3616 124.34 25.3616C125.409 25.3616 126.465 25.5052 127.507 25.7925C128.55 26.0798 129.462 26.467 130.255 26.9478L128.799 29.883C127.993 29.4396 127.153 29.0774 126.261 28.7901Z" fill="#2C2C2C"/>
<path d="M8.08203 16.0437H20.1428V8.78061H28.1177V0H5.35377L0.00872803 8.78061H8.08203V16.0437Z" fill="#FF5E04"/>
<path d="M20.1406 23.7124H8.07986V30.9755H0V39.7561H22.9738L28.1156 30.9755H20.1406V23.7124Z" fill="#FF5E04"/>
</svg>
