<svg width="137" height="121" viewBox="0 0 137 121" fill="none" xmlns="http://www.w3.org/2000/svg">
<path d="M56.4855 33.8021L59.1762 35.9213L59.6995 32.5365C61.7299 19.4041 68.7862 8.99647 79.4032 4.81572C88.4886 1.23809 98.7435 2.77773 108.062 8.42466C117.383 14.0727 125.656 23.7816 130.568 36.2556C135.48 48.7297 136.048 61.4726 133.081 71.9592C130.114 82.4438 123.663 90.5622 114.577 94.1398C103.96 98.3205 91.7022 95.5185 81.2628 87.2964L78.5722 85.1772L78.0488 88.562C76.0184 101.694 68.9621 112.102 58.3451 116.283C49.2598 119.86 39.0049 118.321 29.6862 112.674C20.3657 107.026 12.0927 97.3169 7.1807 84.8429C2.26869 72.3689 1.70057 59.626 4.6676 49.1393C7.63404 38.6547 14.0858 30.5364 23.1711 26.9588C33.7881 22.778 46.0461 25.58 56.4855 33.8021Z" fill="#1047AE" stroke="#2C2C2C" stroke-width="4"/>
</svg>
