<svg width="1512" height="273" viewBox="0 0 1512 273" fill="none" xmlns="http://www.w3.org/2000/svg">
<path d="M1247.28 183.141C1241.85 206.611 1221.64 224.631 1192.75 234.566C1163.9 244.49 1126.68 246.213 1087.97 237.258C1049.26 228.302 1016.58 210.406 995.014 188.815C973.424 167.201 963.182 142.136 968.612 118.666C974.042 95.1961 994.253 77.1761 1023.14 67.2411C1052 57.3168 1089.22 55.5935 1127.93 64.5491C1166.64 73.5047 1199.32 91.4009 1220.88 112.991C1242.47 134.605 1252.71 159.671 1247.28 183.141Z" fill="#929CF1" stroke="#2C2C2C" stroke-width="4"/>
<path d="M1501.11 171.336L1497.82 173.099L1501.11 174.862C1508.17 178.64 1511.73 187.008 1509.17 194.908C1506.61 202.772 1498.81 207.461 1490.87 206.367L1487.17 205.857L1488.8 209.221C1492.3 216.433 1490.24 225.3 1483.56 230.172C1476.84 235.01 1467.79 234.228 1462.01 228.672L1459.31 226.077L1458.66 229.762C1457.25 237.633 1450.38 243.625 1442.11 243.625C1433.84 243.625 1426.97 237.633 1425.56 229.762L1424.91 226.089L1422.21 228.668C1416.43 234.201 1407.34 235.003 1400.67 230.139L1400.66 230.136C1393.95 225.269 1391.92 216.37 1395.42 209.189L1397.06 205.821L1393.35 206.332C1385.41 207.426 1377.61 202.737 1375.05 194.873C1372.49 187.011 1376.04 178.642 1383.1 174.862L1386.4 173.099L1383.1 171.336C1376.04 167.556 1372.49 159.186 1375.05 151.324C1377.61 143.46 1385.41 138.772 1393.35 139.865L1397.05 140.376L1395.42 137.011C1391.92 129.8 1393.98 120.933 1400.66 116.062C1407.38 111.223 1416.43 112.004 1422.21 117.56L1424.91 120.156L1425.56 116.471C1426.97 108.599 1433.84 102.608 1442.11 102.608C1450.38 102.608 1457.25 108.599 1458.66 116.471L1459.31 120.156L1462.01 117.56C1467.79 111.999 1476.85 111.193 1483.56 116.061C1490.27 120.929 1492.3 129.827 1488.8 137.008L1487.16 140.377L1490.87 139.865C1498.81 138.772 1506.61 143.46 1509.17 151.324C1511.73 159.186 1508.18 167.556 1501.11 171.336Z" fill="#FFC444" stroke="#2C2C2C" stroke-width="4"/>
<path d="M119.136 63.6467C118.135 63.1799 116.945 63.613 116.478 64.614L85.4228 131.212L18.8255 100.157C18.3448 99.9326 17.7947 99.9086 17.2962 100.09C16.7978 100.271 16.3918 100.643 16.1677 101.124L4.73171 125.649C4.50754 126.129 4.48352 126.679 4.66494 127.178C4.84636 127.676 5.21836 128.082 5.69909 128.306L72.2964 159.361L41.2417 225.959C40.7749 226.96 41.208 228.15 42.2091 228.617L66.7335 240.053C67.2143 240.277 67.7643 240.301 68.2628 240.12C68.7612 239.938 69.1672 239.566 69.3914 239.086L100.446 172.488L167.044 203.543C167.525 203.767 168.075 203.791 168.574 203.61C169.072 203.428 169.478 203.056 169.702 202.576L181.138 178.051C181.605 177.05 181.172 175.86 180.171 175.393L113.572 144.338L144.628 77.7405C144.852 77.2598 144.876 76.7097 144.695 76.2112C144.513 75.7128 144.141 75.3068 143.661 75.0826L119.136 63.6467Z" fill="#929CF1" stroke="#2C2C2C" stroke-width="4" stroke-linejoin="round"/>
<path d="M1355.18 163.572L1355.18 163.572L1344.74 173.666C1331.93 186.057 1329.27 205.615 1338.32 220.975L1345.69 233.486L1345.69 233.487C1347.77 237.019 1343.07 240.597 1340.22 237.649L1340.22 237.649L1330.13 227.21C1317.73 214.394 1298.18 211.739 1282.82 220.787L1270.3 228.157L1270.3 228.158C1266.77 230.238 1263.19 225.537 1266.14 222.687L1266.14 222.687L1276.58 212.593C1289.4 200.202 1292.05 180.643 1283 165.284L1275.63 152.772L1275.63 152.772C1273.55 149.24 1278.25 145.662 1281.1 148.609L1281.1 148.61L1291.2 159.049C1303.59 171.864 1323.15 174.52 1338.51 165.472L1351.02 158.101L1351.02 158.101C1354.55 156.021 1358.13 160.722 1355.18 163.572Z" fill="#F2994A" stroke="#2C2C2C" stroke-width="4"/>
<path d="M672.645 158.665L672.645 158.665L681.151 170.434C691.594 184.882 690.777 204.603 679.174 218.136L669.723 229.161L669.723 229.161C667.055 232.273 671.056 236.62 674.378 234.219L674.379 234.219L686.147 225.712C700.595 215.27 720.316 216.087 733.849 227.689L744.874 237.141L744.874 237.141C747.987 239.809 752.333 235.808 749.932 232.485L749.932 232.485L741.425 220.716C730.983 206.269 731.8 186.548 743.403 173.014L752.854 161.99L752.854 161.99C755.522 158.877 751.521 154.53 748.198 156.932L748.198 156.932L736.43 165.438C721.982 175.881 702.261 175.064 688.727 163.461L677.703 154.01L677.703 154.01C674.59 151.342 670.243 155.342 672.645 158.665Z" fill="#F2994A" stroke="#2C2C2C" stroke-width="4"/>
<path d="M226.589 169.491V241.999" stroke="#2C2C2C" stroke-width="4" stroke-miterlimit="10" stroke-linecap="round"/>
<path d="M262.843 205.745H190.334" stroke="#2C2C2C" stroke-width="4" stroke-miterlimit="10" stroke-linecap="round"/>
<path d="M252.22 231.377L200.957 180.114" stroke="#2C2C2C" stroke-width="4" stroke-miterlimit="10" stroke-linecap="round"/>
<path d="M200.957 231.377L252.22 180.114" stroke="#2C2C2C" stroke-width="4" stroke-miterlimit="10" stroke-linecap="round"/>
<path d="M629.99 85.0964L657.032 152.373" stroke="#2C2C2C" stroke-width="4" stroke-miterlimit="10" stroke-linecap="round"/>
<path d="M677.15 105.213L609.873 132.256" stroke="#2C2C2C" stroke-width="4" stroke-miterlimit="10" stroke-linecap="round"/>
<path d="M676.853 132.958L610.169 104.512" stroke="#2C2C2C" stroke-width="4" stroke-miterlimit="10" stroke-linecap="round"/>
<path d="M629.288 152.076L657.734 85.3929" stroke="#2C2C2C" stroke-width="4" stroke-miterlimit="10" stroke-linecap="round"/>
<path d="M344.414 96.9824V241.999" stroke="#2C2C2C" stroke-width="4" stroke-miterlimit="10" stroke-linecap="round"/>
<path d="M416.923 169.491H271.906" stroke="#2C2C2C" stroke-width="4" stroke-miterlimit="10" stroke-linecap="round"/>
<path d="M395.677 220.755L293.151 118.228" stroke="#2C2C2C" stroke-width="4" stroke-miterlimit="10" stroke-linecap="round"/>
<path d="M293.151 220.755L395.677 118.228" stroke="#2C2C2C" stroke-width="4" stroke-miterlimit="10" stroke-linecap="round"/>
<circle cx="1302.89" cy="107.853" r="10" transform="rotate(-24.2268 1302.89 107.853)" fill="#3C73DA" stroke="#2C2C2C" stroke-width="4"/>
<circle cx="1339.37" cy="91.4386" r="10" transform="rotate(-24.2268 1339.37 91.4386)" fill="#3C73DA" stroke="#2C2C2C" stroke-width="4"/>
<circle cx="1375.84" cy="75.0248" r="10" transform="rotate(-24.2268 1375.84 75.0248)" fill="#3C73DA" stroke="#2C2C2C" stroke-width="4"/>
<path d="M577.559 148.578L576.986 151.942L580.201 150.798C593.892 145.927 607.61 147.227 617.224 155.283C625.44 162.167 629.326 172.836 628.78 184.722C628.235 196.611 623.245 209.598 613.858 220.801C604.472 232.003 592.549 239.182 580.935 241.796C569.322 244.41 558.138 242.451 549.94 235.582C540.324 227.525 536.61 214.215 539.044 199.921L539.616 196.558L536.402 197.701C522.711 202.572 508.993 201.272 499.379 193.217C489.763 185.159 486.049 171.85 488.483 157.556L489.055 154.192L485.841 155.336C472.15 160.207 458.432 158.907 448.818 150.851C439.202 142.794 435.489 129.484 437.922 115.19L438.494 111.827L435.28 112.97C421.589 117.841 407.871 116.541 398.257 108.486C390.059 101.617 386.173 90.9479 386.714 79.0569C387.255 67.164 392.237 54.1692 401.623 42.9674C411.009 31.7656 422.931 24.5866 434.546 21.9721C446.159 19.3579 457.343 21.3171 465.541 28.1861C475.157 36.2436 478.87 49.5532 476.437 63.8472L475.864 67.2108L479.079 66.0671C492.77 61.196 506.488 62.496 516.102 70.5516C525.718 78.6091 529.431 91.9187 526.998 106.213L526.425 109.576L529.64 108.433C543.331 103.561 557.049 104.861 566.663 112.917C576.279 120.975 579.992 134.284 577.559 148.578Z" fill="#FF9863" stroke="#2C2C2C" stroke-width="4"/>
<rect x="426.783" y="205.44" width="31.7676" height="31.7676" transform="rotate(-45 426.783 205.44)" fill="#1047AE" stroke="#2C2C2C" stroke-width="4"/>
<rect x="945.55" y="207.082" width="31.7676" height="31.7676" transform="rotate(-16.9684 945.55 207.082)" fill="#1047AE" stroke="#2C2C2C" stroke-width="4"/>
<path d="M765.15 153.176C765.15 104.243 804.852 64.541 853.785 64.541C902.756 64.541 942.421 104.242 942.421 153.176C942.421 202.11 902.719 241.812 853.785 241.812C804.852 241.812 765.15 202.11 765.15 153.176ZM795.138 153.176C795.138 185.55 821.412 211.824 853.785 211.824C886.198 211.824 912.432 185.549 912.432 153.176C912.432 120.803 886.159 94.5293 853.785 94.5293C821.412 94.5293 795.138 120.803 795.138 153.176Z" fill="#FF5E04" stroke="#2C2C2C" stroke-width="4"/>
</svg>
