<svg width="140" height="140" viewBox="0 0 140 140" fill="none" xmlns="http://www.w3.org/2000/svg">
<path d="M97.8201 39.6881L96.7461 43.2539L100.312 42.1799C103.039 41.3585 105.923 40.9005 108.901 40.9005C124.972 40.9005 138 53.9282 138 70C138 86.0718 124.972 99.0995 108.901 99.0995C105.923 99.0995 103.039 98.6415 100.312 97.8201L96.7461 96.7461L97.8201 100.312C98.6415 103.039 99.0995 105.923 99.0995 108.901C99.0995 124.972 86.0718 138 70 138C53.9282 138 40.9006 124.972 40.9006 108.901C40.9006 105.923 41.3585 103.039 42.1799 100.312L43.2539 96.7461L39.6881 97.8201C36.9611 98.6415 34.0768 99.0995 31.0995 99.0995C15.0276 99.0995 2 86.0718 2 70C2 53.9282 15.0276 40.9005 31.0995 40.9005C34.0768 40.9005 36.9611 41.3585 39.6881 42.1799L43.2539 43.2539L42.1799 39.6881C41.3585 36.9611 40.9006 34.0768 40.9006 31.0995C40.9006 15.0276 53.9282 2 70 2C86.0718 2 99.0995 15.0276 99.0995 31.0995C99.0995 34.0768 98.6415 36.9611 97.8201 39.6881ZM52.5028 70C52.5028 79.6753 60.3597 87.5322 70.035 87.5322C79.7103 87.5322 87.5672 79.6753 87.5672 70C87.5672 60.3247 79.7103 52.4678 70.035 52.4678C60.3597 52.4678 52.5028 60.3247 52.5028 70Z" fill="#FF9863" stroke="black" stroke-width="4"/>
</svg>
