<svg width="57" height="57" viewBox="0 0 57 57" fill="none" xmlns="http://www.w3.org/2000/svg">
<path d="M25.8617 20.8575L8.80475 12.9038C8.32401 12.6796 7.77391 12.6556 7.27547 12.837C6.77702 13.0184 6.37106 13.3904 6.14689 13.8711L2.99251 20.6357C2.76834 21.1165 2.74432 21.6666 2.92574 22.165C3.10716 22.6635 3.47915 23.0694 3.95989 23.2936L21.0168 31.2474L13.0631 48.3045C12.5963 49.3056 13.0294 50.4955 14.0305 50.9623L20.795 54.1167C21.2758 54.3409 21.8259 54.3649 22.3243 54.1835C22.8228 54.0021 23.2287 53.6301 23.4529 53.1493L31.4066 36.0922L48.4638 44.0461C48.9446 44.2703 49.4947 44.2943 49.9931 44.1129C50.4915 43.9314 50.8975 43.5595 51.1217 43.0787L54.276 36.3141C54.7429 35.3131 54.3097 34.1231 53.3087 33.6563L36.2515 25.7024L44.2054 8.64541C44.4296 8.16468 44.4536 7.61458 44.2722 7.11613C44.0908 6.61769 43.7188 6.21172 43.2381 5.98755L36.4735 2.83316C35.4724 2.36635 34.2825 2.79945 33.8156 3.80052L25.8617 20.8575Z" fill="#FF9863" stroke="#2C2C2C" stroke-width="4" stroke-linejoin="round"/>
</svg>
