<svg width="78" height="78" viewBox="0 0 78 78" fill="none" xmlns="http://www.w3.org/2000/svg">
<path d="M60.6071 12.966L58.808 12.0923L60.6071 12.966C62.1157 9.85929 58.0435 7.08281 55.7027 9.62218L50.814 14.9254L51.9123 7.79688C52.4381 4.38356 47.7285 2.93072 46.2401 6.04722L43.1318 12.5558L42.0801 5.42054C41.5765 2.00386 36.6479 2.00374 36.1442 5.42053L35.0926 12.5558L31.9842 6.04723C30.4959 2.93077 25.7862 4.38351 26.3121 7.79688L27.4103 14.9255L22.5216 9.62217C20.1808 7.08287 16.1086 9.85922 17.6172 12.966L20.7678 19.4542L14.5334 15.8276C11.5481 14.0911 8.4751 17.9444 10.8324 20.4684L15.7554 25.7396L8.72883 24.1118C5.36437 23.3323 3.56362 27.9202 6.56021 29.6373L12.8182 33.2233L5.62429 33.7387C2.17951 33.9856 1.8111 38.9005 5.18067 39.658L12.2175 41.24L5.49468 43.8533C2.27573 45.1046 3.37237 49.9096 6.8155 49.6404L14.0065 49.078L8.35279 53.5566C5.6456 55.7011 8.10994 59.9694 11.3207 58.6972L18.0261 56.0403L13.9438 61.9862C11.989 64.8334 15.6019 68.1858 18.2951 66.0237L23.9194 61.5084L21.771 68.3936C20.7423 71.6906 25.1829 73.8289 27.1191 70.9691L31.1626 64.9966L31.1391 72.2091C31.1278 75.6626 36.0014 76.3974 37.0086 73.0938L39.1122 66.1946L41.2157 73.0938C42.223 76.3973 47.0966 75.6627 47.0853 72.2091L47.0618 64.9966L51.1052 70.9691C53.0414 73.829 57.482 71.6905 56.4533 68.3936L54.3049 61.5084L59.9293 66.0237C62.6225 68.1859 66.2353 64.8334 64.2806 61.9863L60.1983 56.0403L66.9035 58.6972C70.1143 59.9694 72.5787 55.7011 69.8715 53.5566L64.2178 49.078L71.4088 49.6404C74.8518 49.9096 75.9486 45.1046 72.7296 43.8533L66.0067 41.24L73.0436 39.658C76.413 38.9005 76.0449 33.9856 72.6 33.7387L65.4062 33.2233L71.6642 29.6373C74.6607 27.9202 72.8601 23.3323 69.4956 24.1118L62.469 25.7396L67.392 20.4684C69.7493 17.9443 66.6762 14.091 63.691 15.8276L57.4565 19.4542L60.6071 12.966ZM22.2005 22.4045C22.2003 22.4041 22.2001 22.4037 22.1999 22.4033L22.2005 22.4045ZM38.1557 63.0574L38.1562 63.0592L38.1557 63.0574ZM53.328 58.3774C53.3281 58.3779 53.3283 58.3784 53.3285 58.379L53.328 58.3774ZM62.9498 40.0518C62.9505 40.052 62.9512 40.0523 62.9519 40.0526L62.9498 40.0518ZM56.0239 22.4046L56.0245 22.4033L56.0239 22.4046Z" fill="#FFDB88" stroke="#2C2C2C" stroke-width="4" stroke-linejoin="round"/>
</svg>
