<svg width="81" height="81" viewBox="0 0 81 81" fill="none" xmlns="http://www.w3.org/2000/svg">
<path d="M36.7762 30.3543L10.2845 18.001C9.80377 17.7768 9.25367 17.7528 8.75522 17.9342C8.25678 18.1156 7.85082 18.4876 7.62665 18.9683L2.89507 29.1152C2.6709 29.596 2.64688 30.1461 2.8283 30.6445C3.00972 31.143 3.38172 31.5489 3.86245 31.7731L30.3542 44.1264L18.0009 70.6184C17.5341 71.6194 17.9672 72.8094 18.9683 73.2762L29.1152 78.0078C29.5959 78.2319 30.146 78.256 30.6445 78.0745C31.1429 77.8931 31.5489 77.5211 31.773 77.0404L44.1263 50.5484L70.6183 62.9018C71.0991 63.126 71.6492 63.15 72.1476 62.9686C72.6461 62.7872 73.052 62.4152 73.2762 61.9345L78.0078 51.7876C78.4746 50.7865 78.0415 49.5966 77.0404 49.1298L50.5483 36.7763L62.9019 10.2845C63.126 9.80377 63.15 9.25368 62.9686 8.75523C62.7872 8.25678 62.4152 7.85082 61.9345 7.62665L51.7876 2.89506C50.7865 2.42825 49.5966 2.86135 49.1298 3.86242L36.7762 30.3543Z" fill="#929CF1" stroke="#2C2C2C" stroke-width="4" stroke-linejoin="round"/>
</svg>
