<svg width="48" height="48" viewBox="0 0 48 48" fill="none" xmlns="http://www.w3.org/2000/svg">
<path d="M21.4802 4.23827L21.4802 4.23847L20.8509 9.54175C20.1473 15.4719 15.4719 20.1473 9.54175 20.8509L4.23847 21.4802L4.23827 21.4802C1.25388 21.8346 1.25394 26.1654 4.23826 26.5198L4.23847 26.5198L9.54175 27.1491C15.4719 27.8527 20.1473 32.5281 20.8509 38.4582L21.4802 43.7615L21.4802 43.7617C21.8346 46.7461 26.1654 46.7461 26.5198 43.7617L26.5198 43.7615L27.1491 38.4582C27.8527 32.5281 32.5281 27.8527 38.4582 27.1491L43.7615 26.5198L43.7617 26.5198C46.7461 26.1654 46.7461 21.8346 43.7617 21.4802L43.7615 21.4802L38.4582 20.8509C32.5281 20.1473 27.8527 15.4719 27.1491 9.54175L26.5198 4.23847L26.5198 4.23826C26.1654 1.25394 21.8346 1.25388 21.4802 4.23827Z" fill="#F2994A" stroke="black" stroke-width="4"/>
</svg>
