<svg width="25" height="25" viewBox="0 0 25 25" fill="none" xmlns="http://www.w3.org/2000/svg">
<path fill-rule="evenodd" clip-rule="evenodd" d="M12.4803 0.52002C9.51756 0.521557 6.65198 1.5709 4.39595 3.4804C2.13991 5.38991 0.640542 8.03507 0.165929 10.9429C-0.308684 13.8507 0.272406 16.8316 1.80531 19.3525C3.33821 21.8734 5.72296 23.77 8.53313 24.7031C9.1531 24.8182 9.38662 24.4339 9.38662 24.1072C9.38662 23.7805 9.37422 22.8332 9.37009 21.7976C5.89825 22.5476 5.16463 20.3325 5.16463 20.3325C4.59839 18.8942 3.78003 18.5161 3.78003 18.5161C2.64755 17.7476 3.86476 17.762 3.86476 17.762C5.11917 17.8503 5.7784 19.0421 5.7784 19.0421C6.89022 20.9387 8.69845 20.3901 9.40935 20.0695C9.52095 19.2661 9.8454 18.7195 10.2029 18.4092C7.42959 18.0969 4.51572 17.0325 4.51572 12.2777C4.49853 11.0445 4.95875 9.85199 5.80113 8.94681C5.67301 8.63448 5.24522 7.37282 5.92305 5.65911C5.92305 5.65911 6.97081 5.32623 9.35563 6.93104C11.4012 6.37483 13.5594 6.37483 15.6049 6.93104C17.9877 5.32623 19.0334 5.65911 19.0334 5.65911C19.7133 7.36871 19.2855 8.63037 19.1574 8.94681C20.0024 9.85214 20.4636 11.0467 20.4448 12.2818C20.4448 17.0469 17.5248 18.0969 14.7473 18.4031C15.1937 18.7894 15.5925 19.5435 15.5925 20.7024C15.5925 22.3627 15.5781 23.6983 15.5781 24.1072C15.5781 24.438 15.8033 24.8243 16.4357 24.7031C19.2462 23.7699 21.6312 21.873 23.164 19.3516C24.6969 16.8303 25.2777 13.849 24.8026 10.9409C24.3274 8.03278 22.8273 5.38759 20.5705 3.47841C18.3137 1.56923 15.4475 0.520582 12.4844 0.52002H12.4803Z" fill="#2C2C2C"/>
<path d="M4.72621 18.3373C4.69935 18.3989 4.60015 18.4174 4.51955 18.3743C4.43896 18.3311 4.37903 18.251 4.40796 18.1873C4.4369 18.1236 4.53403 18.1071 4.61462 18.1503C4.69522 18.1934 4.75721 18.2756 4.72621 18.3373Z" fill="#2C2C2C"/>
<path d="M5.23254 18.8983C5.18975 18.9197 5.14078 18.9257 5.09404 18.9152C5.04729 18.9047 5.00567 18.8784 4.97629 18.8407C4.8957 18.7544 4.87915 18.6352 4.94115 18.5818C5.00315 18.5284 5.11475 18.5531 5.19535 18.6394C5.27594 18.7257 5.29454 18.8448 5.23254 18.8983Z" fill="#2C2C2C"/>
<path d="M5.72441 19.6113C5.64795 19.6648 5.51774 19.6113 5.44541 19.5045C5.42541 19.4853 5.40951 19.4623 5.39864 19.4369C5.38778 19.4115 5.38217 19.3842 5.38217 19.3565C5.38217 19.3289 5.38778 19.3016 5.39864 19.2762C5.40951 19.2507 5.42541 19.2278 5.44541 19.2086C5.52188 19.1572 5.65208 19.2086 5.72441 19.3134C5.79674 19.4182 5.7988 19.5579 5.72441 19.6113Z" fill="#2C2C2C"/>
<path d="M6.39189 20.3016C6.32369 20.3776 6.18524 20.3571 6.07158 20.2543C5.95792 20.1516 5.93104 20.0118 5.99924 19.9379C6.06744 19.8639 6.2059 19.8845 6.32369 19.9851C6.44149 20.0858 6.46422 20.2276 6.39189 20.3016Z" fill="#2C2C2C"/>
<path d="M7.32802 20.7045C7.29702 20.8011 7.15649 20.8442 7.01597 20.8031C6.87544 20.762 6.78245 20.647 6.80931 20.5483C6.83618 20.4497 6.97877 20.4045 7.12136 20.4497C7.26396 20.4949 7.35489 20.6038 7.32802 20.7045Z" fill="#2C2C2C"/>
<path d="M8.34894 20.7744C8.34894 20.8751 8.23322 20.9614 8.08443 20.9634C7.93563 20.9655 7.81371 20.8833 7.81371 20.7826C7.81371 20.6819 7.92943 20.5956 8.07822 20.5935C8.22701 20.5915 8.34894 20.6716 8.34894 20.7744Z" fill="#2C2C2C"/>
<path d="M9.29958 20.616C9.31818 20.7167 9.21485 20.8215 9.06605 20.8461C8.91726 20.8708 8.78707 20.8112 8.76847 20.7126C8.74987 20.6139 8.85733 20.5071 9.00199 20.4804C9.14665 20.4536 9.28098 20.5153 9.29958 20.616Z" fill="#2C2C2C"/>
</svg>
