<svg width="25" height="25" viewBox="0 0 25 25" fill="none" xmlns="http://www.w3.org/2000/svg">
<path d="M12.48 2.24738C15.8145 2.24738 16.2094 2.262 17.5208 2.3205C18.7395 2.37413 19.3976 2.57888 19.8364 2.7495C20.4165 2.97375 20.8358 3.24675 21.2696 3.68063C21.7084 4.11938 21.9765 4.53375 22.2008 5.11388C22.3714 5.55263 22.5761 6.21563 22.6298 7.4295C22.6883 8.74575 22.7029 9.14063 22.7029 12.4703C22.7029 15.8048 22.6883 16.1996 22.6298 17.511C22.5761 18.7298 22.3714 19.3879 22.2008 19.8266C21.9765 20.4068 21.7035 20.826 21.2696 21.2599C20.8309 21.6986 20.4165 21.9668 19.8364 22.191C19.3976 22.3616 18.7346 22.5664 17.5208 22.62C16.2045 22.6785 15.8096 22.6931 12.48 22.6931C9.1455 22.6931 8.75063 22.6785 7.43925 22.62C6.2205 22.5664 5.56238 22.3616 5.12363 22.191C4.5435 21.9668 4.12425 21.6938 3.69038 21.2599C3.25163 20.8211 2.9835 20.4068 2.75925 19.8266C2.58863 19.3879 2.38388 18.7249 2.33025 17.511C2.27175 16.1948 2.25713 15.7999 2.25713 12.4703C2.25713 9.13575 2.27175 8.74088 2.33025 7.4295C2.38388 6.21075 2.58863 5.55263 2.75925 5.11388C2.9835 4.53375 3.2565 4.1145 3.69038 3.68063C4.12913 3.24188 4.5435 2.97375 5.12363 2.7495C5.56238 2.57888 6.22538 2.37413 7.43925 2.3205C8.75063 2.262 9.1455 2.24738 12.48 2.24738ZM12.48 0C9.09188 0 8.66775 0.014625 7.33688 0.073125C6.01088 0.131625 5.09925 0.346125 4.3095 0.65325C3.48563 0.975 2.7885 1.39913 2.09625 2.09625C1.39913 2.7885 0.975 3.48563 0.65325 4.30463C0.346125 5.09925 0.131625 6.006 0.073125 7.332C0.014625 8.66775 0 9.09188 0 12.48C0 15.8681 0.014625 16.2923 0.073125 17.6231C0.131625 18.9491 0.346125 19.8608 0.65325 20.6505C0.975 21.4744 1.39913 22.1715 2.09625 22.8638C2.7885 23.556 3.48563 23.985 4.30463 24.3019C5.09925 24.609 6.006 24.8235 7.332 24.882C8.66288 24.9405 9.087 24.9551 12.4751 24.9551C15.8633 24.9551 16.2874 24.9405 17.6183 24.882C18.9443 24.8235 19.8559 24.609 20.6456 24.3019C21.4646 23.985 22.1618 23.556 22.854 22.8638C23.5463 22.1715 23.9753 21.4744 24.2921 20.6554C24.5993 19.8608 24.8138 18.954 24.8723 17.628C24.9308 16.2971 24.9454 15.873 24.9454 12.4849C24.9454 9.09675 24.9308 8.67263 24.8723 7.34175C24.8138 6.01575 24.5993 5.10413 24.2921 4.31438C23.985 3.48563 23.5609 2.7885 22.8638 2.09625C22.1715 1.404 21.4744 0.975 20.6554 0.658125C19.8608 0.351 18.954 0.1365 17.628 0.078C16.2923 0.014625 15.8681 0 12.48 0Z" fill="#2C2C2C"/>
<path d="M12.48 6.06934C8.94076 6.06934 6.06938 8.94071 6.06938 12.48C6.06938 16.0192 8.94076 18.8906 12.48 18.8906C16.0193 18.8906 18.8906 16.0192 18.8906 12.48C18.8906 8.94071 16.0193 6.06934 12.48 6.06934ZM12.48 16.6383C10.1839 16.6383 8.32163 14.7761 8.32163 12.48C8.32163 10.1838 10.1839 8.32159 12.48 8.32159C14.7761 8.32159 16.6384 10.1838 16.6384 12.48C16.6384 14.7761 14.7761 16.6383 12.48 16.6383Z" fill="#2C2C2C"/>
<path d="M20.6408 5.81572C20.6408 6.64447 19.968 7.31235 19.1441 7.31235C18.3154 7.31235 17.6475 6.63959 17.6475 5.81572C17.6475 4.98697 18.3203 4.31909 19.1441 4.31909C19.968 4.31909 20.6408 4.99184 20.6408 5.81572Z" fill="#2C2C2C"/>
</svg>
