<svg width="25" height="25" viewBox="0 0 25 25" fill="none" xmlns="http://www.w3.org/2000/svg">
<path d="M23.1124 0H1.84275C0.823875 0 0 0.804375 0 1.79888V23.1563C0 24.1508 0.823875 24.96 1.84275 24.96H23.1124C24.1313 24.96 24.96 24.1508 24.96 23.1611V1.79888C24.96 0.804375 24.1313 0 23.1124 0ZM7.40513 21.2696H3.70013V9.35512H7.40513V21.2696ZM5.55263 7.73175C4.36313 7.73175 3.40275 6.77138 3.40275 5.58675C3.40275 4.40213 4.36313 3.44175 5.55263 3.44175C6.73725 3.44175 7.69763 4.40213 7.69763 5.58675C7.69763 6.7665 6.73725 7.73175 5.55263 7.73175ZM21.2696 21.2696H17.5695V15.4781C17.5695 14.0985 17.5451 12.3191 15.6439 12.3191C13.7183 12.3191 13.4257 13.8255 13.4257 15.3806V21.2696H9.7305V9.35512H13.2795V10.9834H13.3282C13.8206 10.0474 15.0296 9.05775 16.8285 9.05775C20.5774 9.05775 21.2696 11.5245 21.2696 14.7323V21.2696Z" fill="#2C2C2C"/>
</svg>
