<svg width="25" height="21" viewBox="0 0 25 21" fill="none" xmlns="http://www.w3.org/2000/svg">
<path d="M7.85216 20.7031C17.2687 20.7031 22.4206 12.8997 22.4206 6.13466C22.4206 5.91529 22.4157 5.69103 22.406 5.47166C23.4082 4.74688 24.2731 3.84915 24.96 2.82063C24.0266 3.23591 23.0356 3.50712 22.0209 3.62501C23.0893 2.98455 23.8894 1.97842 24.2726 0.793122C23.2675 1.38882 22.1682 1.80904 21.022 2.03576C20.2497 1.21515 19.2285 0.671806 18.1165 0.489738C17.0044 0.30767 15.8633 0.497017 14.8697 1.02851C13.876 1.55999 13.0851 2.40402 12.6192 3.43009C12.1533 4.45616 12.0384 5.60712 12.2923 6.70504C10.257 6.6029 8.26585 6.07418 6.44798 5.15315C4.63011 4.23212 3.02608 2.93934 1.73989 1.35862C1.08618 2.4857 0.886139 3.8194 1.18043 5.08866C1.47473 6.35792 2.24127 7.46751 3.32426 8.19191C2.51121 8.1661 1.71597 7.94719 1.00425 7.55328V7.61666C1.00352 8.79944 1.41242 9.94598 2.16144 10.8614C2.91046 11.7768 3.95338 12.4045 5.1129 12.6379C4.35974 12.844 3.56926 12.874 2.80264 12.7257C3.12983 13.7429 3.76644 14.6325 4.6236 15.2705C5.48077 15.9085 6.51573 16.2629 7.58404 16.2844C5.77036 17.7091 3.52994 18.4818 1.22363 18.4782C0.814619 18.4775 0.406015 18.4525 0 18.4031C2.34297 19.9062 5.06847 20.7046 7.85216 20.7031Z" fill="#2C2C2C"/>
</svg>
