<svg width="117" height="84" viewBox="0 0 117 84" fill="none" xmlns="http://www.w3.org/2000/svg">
<path d="M88.2887 41.804L88.5445 45.2065L91.3882 43.321C96.4165 39.9872 101.908 39.2373 106.352 41.4047C110.156 43.2597 112.737 47.0109 113.7 51.8153C114.663 56.6223 113.967 62.3719 111.281 67.8784C108.596 73.3838 104.49 77.4703 100.106 79.67C95.724 81.8689 91.1786 82.1433 87.3852 80.2931C82.9387 78.1244 80.1338 73.3245 79.6829 67.3268L79.4271 63.9244L76.5833 65.8099C71.555 69.1437 66.063 69.8936 61.6191 67.7262C57.1726 65.5575 54.3676 60.7575 53.9167 54.7599L53.661 51.3574L50.8172 53.2429C45.7889 56.5767 40.2969 57.3266 35.853 55.1592C31.4065 52.9905 28.6015 48.1905 28.1506 42.1929L27.8948 38.7904L25.0511 40.6759C20.0228 44.0097 14.5308 44.7597 10.0869 42.5922C6.29356 40.7421 3.71132 36.9913 2.7461 32.1843C1.78051 27.3755 2.47278 21.624 5.15797 16.1186C7.84315 10.6131 11.9492 6.52664 16.333 4.32691C20.7153 2.12801 25.2607 1.85365 29.0541 3.70378C33.5006 5.87249 36.3055 10.6724 36.7564 16.6701L37.0122 20.0725L39.856 18.1871C44.8843 14.8532 50.3763 14.1033 54.8202 16.2708C59.2667 18.4395 62.0717 23.2394 62.5226 29.2371L62.7783 32.6395L65.6221 30.754C70.6504 27.4202 76.1424 26.6703 80.5863 28.8377C85.0328 31.0064 87.8378 35.8064 88.2887 41.804Z" fill="#3C73DA" stroke="#2C2C2C" stroke-width="4"/>
</svg>
