<svg width="83" height="83" viewBox="0 0 83 83" fill="none" xmlns="http://www.w3.org/2000/svg">
<path d="M57.0127 23.2134L55.9386 26.7793L59.5045 25.7052C61.0435 25.2417 62.6682 24.9841 64.343 24.9841C73.387 24.9841 80.7179 32.315 80.7179 41.3589C80.7179 50.4029 73.387 57.7338 64.343 57.7338C62.6682 57.7338 61.0435 57.4762 59.5045 57.0127L55.9386 55.9386L57.0127 59.5045C57.4762 61.0434 57.7338 62.6682 57.7338 64.343C57.7338 73.387 50.4029 80.7179 41.3589 80.7179C32.315 80.7179 24.9841 73.387 24.9841 64.343C24.9841 62.6682 25.2417 61.0434 25.7052 59.5045L26.7793 55.9386L23.2134 57.0127C21.6744 57.4762 20.0497 57.7338 18.3749 57.7338C9.33088 57.7338 2 50.4029 2 41.3589C2 32.315 9.33088 24.9841 18.3749 24.9841C20.0497 24.9841 21.6744 25.2417 23.2134 25.7052L26.7793 26.7793L25.7052 23.2134C25.2417 21.6744 24.9841 20.0497 24.9841 18.3749C24.9841 9.33089 32.315 2 41.3589 2C50.4029 2 57.7338 9.33089 57.7338 18.3749C57.7338 20.0497 57.4762 21.6744 57.0127 23.2134ZM30.2025 41.3589C30.2025 47.5274 35.2111 52.536 41.3796 52.536C47.5481 52.536 52.5567 47.5274 52.5567 41.3589C52.5567 35.1904 47.5481 30.1818 41.3796 30.1818C35.2111 30.1818 30.2025 35.1904 30.2025 41.3589Z" fill="#FF9863" stroke="black" stroke-width="4"/>
</svg>
