<svg width="92" height="185" viewBox="0 0 92 185" fill="none" xmlns="http://www.w3.org/2000/svg">
<path d="M77.7025 90.7372L74.4093 92.5004L77.7025 94.2636C86.8765 99.1753 91.5017 110.053 88.1743 120.323C84.8474 130.547 74.7021 136.64 64.3889 135.219L60.6851 134.708L62.3163 138.073C66.8618 147.448 64.182 158.974 55.499 165.307C46.7689 171.597 34.9994 170.581 27.4924 163.358L24.7949 160.763L24.1369 164.448C22.3098 174.679 13.3753 182.469 2.62629 182.469C-8.1227 182.469 -17.0572 174.679 -18.8843 164.448L-19.5401 160.775L-22.2358 163.354C-29.7509 170.544 -41.5659 171.59 -50.2426 165.265L-50.2462 165.263C-58.9687 158.934 -61.6109 147.366 -57.0651 138.031L-55.4249 134.663L-59.1363 135.174C-69.4495 136.596 -79.5949 130.502 -82.9217 120.278C-86.2481 110.056 -81.6267 99.1769 -72.4499 94.2636L-69.1567 92.5004L-72.4499 90.7372C-81.6267 85.824 -86.2481 74.9449 -82.9217 64.7224C-79.5949 54.4984 -69.4495 48.4053 -59.1363 49.8265L-55.4325 50.3368L-57.0636 46.9726C-61.6092 37.5975 -58.9295 26.0712 -50.2469 19.7386C-41.5167 13.4478 -29.7469 14.4639 -22.2398 21.687L-19.5424 24.2824L-18.8843 20.5973C-17.0572 10.3658 -8.1227 2.57617 2.62629 2.57617C13.3753 2.57617 22.3098 10.3658 24.1369 20.5973L24.7949 24.2824L27.4924 21.687C35.0055 14.4582 46.7754 13.4086 55.4988 19.7381C64.2213 26.067 66.8635 37.6344 62.3177 46.9696L60.6775 50.3379L64.3889 49.8265C74.7021 48.4053 84.8474 54.4984 88.1743 64.7224C91.5007 74.9449 86.8793 85.824 77.7025 90.7372Z" fill="#FFC444" stroke="#2C2C2C" stroke-width="4"/>
</svg>
