<svg width="59" height="59" viewBox="0 0 59 59" fill="none" xmlns="http://www.w3.org/2000/svg">
<path d="M34.0751 5.6289L33.0405 7.79525L32.6905 5.42054C32.1869 2.00378 27.2582 2.00382 26.7546 5.42054L26.4046 7.79524L25.37 5.6289C23.8817 2.51247 19.172 3.96515 19.6978 7.37855L20.0634 9.75122L18.4362 7.98604C16.0954 5.44669 12.0232 8.22314 13.5317 11.3298L14.5804 13.4894L12.5054 12.2824C9.52011 10.5458 6.44722 14.3992 8.80449 16.9232L10.443 18.6776L8.10427 18.1358C4.73981 17.3564 2.93907 21.9443 5.93565 23.6614L8.01852 24.8549L5.62429 25.0264C2.17953 25.2733 1.81108 30.1881 5.18067 30.9457L7.52269 31.4722L5.28493 32.3421C2.06592 33.5934 3.1627 38.3984 6.60575 38.1291L8.99938 37.9419L7.11761 39.4326C4.41038 41.5771 6.87482 45.8454 10.0855 44.5732L12.3173 43.6889L10.9586 45.6678C9.00386 48.515 12.6168 51.8674 15.3099 49.7053L17.1819 48.2024L16.4668 50.4941C15.4381 53.7909 19.8786 55.9294 21.8148 53.0695L23.1606 51.0818L23.1528 53.4823C23.1415 56.9359 28.0151 57.6705 29.0224 54.367L29.7225 52.0706L30.4227 54.367C31.4299 57.6704 36.3035 56.9359 36.2922 53.4823L36.2844 51.0818L37.6301 53.0695C39.5663 55.9294 44.0069 53.791 42.9782 50.4941L42.2631 48.2024L44.1351 49.7053C46.8283 51.8674 50.4412 48.5151 48.4865 45.6679L47.1277 43.6889L49.3594 44.5732C52.5702 45.8454 55.0345 41.5771 52.3273 39.4326L50.4456 37.9419L52.8392 38.1291C56.2824 38.3984 57.3789 33.5933 54.16 32.3421L51.9223 31.4722L54.2643 30.9457C57.6338 30.1882 57.2655 25.2733 53.8207 25.0264L51.4266 24.8549L53.5094 23.6614C56.506 21.9443 54.7053 17.3563 51.3408 18.1358L49.0021 18.6776L50.6406 16.9232C52.9979 14.3992 49.9249 10.5458 46.9396 12.2824L44.8646 13.4894L45.9133 11.3298C47.4219 8.22307 43.3496 5.44675 41.0088 7.98604L39.3817 9.7512L39.7472 7.37855C40.2731 3.96521 35.5634 2.51241 34.0751 5.6289Z" fill="#FFDB88" stroke="#2C2C2C" stroke-width="4" stroke-linejoin="round"/>
</svg>
