<svg width="63" height="63" viewBox="0 0 63 63" fill="none" xmlns="http://www.w3.org/2000/svg">
<path d="M28.4092 23.0948L8.54308 13.8311C8.06234 13.6069 7.51225 13.5829 7.0138 13.7643C6.51536 13.9457 6.1094 14.3177 5.88523 14.7984L2.26124 22.5701C2.03707 23.0508 2.01305 23.6009 2.19447 24.0994C2.37589 24.5978 2.74789 25.0038 3.22862 25.228L23.0947 34.4917L13.831 54.358C13.3642 55.3591 13.7974 56.549 14.7984 57.0158L22.5701 60.6398C23.0508 60.864 23.6009 60.888 24.0993 60.7066C24.5978 60.5251 25.0038 60.1531 25.2279 59.6724L34.4916 39.8061L54.358 49.0699C54.8387 49.2941 55.3888 49.3181 55.8872 49.1367C56.3857 48.9553 56.7916 48.5833 57.0158 48.1026L60.6398 40.3309C61.1066 39.3298 60.6735 38.1399 59.6724 37.6731L39.806 28.4092L49.0699 8.54309C49.2941 8.06236 49.3181 7.51226 49.1367 7.01381C48.9553 6.51537 48.5833 6.1094 48.1026 5.88523L40.3309 2.26124C39.3299 1.79443 38.1399 2.22753 37.6731 3.2286L28.4092 23.0948Z" fill="#929CF1" stroke="#2C2C2C" stroke-width="4" stroke-linejoin="round"/>
</svg>
