<svg width="54" height="54" viewBox="0 0 54 54" fill="none" xmlns="http://www.w3.org/2000/svg">
<path d="M24.3786 4.30885L24.3786 4.30905L23.6556 10.4018C22.831 17.3514 17.3518 22.8307 10.4022 23.6553L4.30942 24.3782L4.30922 24.3782C1.23072 24.7438 1.23078 29.2111 4.30921 29.5767L4.30942 29.5767L10.4022 30.2996C17.3518 31.1242 22.831 36.6035 23.6556 43.553L24.3786 49.6458L24.3786 49.646C24.7441 52.7246 29.2115 52.7245 29.5771 49.646L29.5771 49.6458L30.3 43.553C31.1246 36.6035 36.6038 31.1242 43.5533 30.2996L49.6461 29.5767L49.6463 29.5767C52.7249 29.2111 52.7249 24.7438 49.6463 24.3782L49.6461 24.3782L43.5534 23.6553C36.6038 22.8307 31.1246 17.3515 30.3 10.4018L29.5771 4.30905L29.5771 4.30885C29.2115 1.23041 24.7442 1.23036 24.3786 4.30885Z" fill="#F2994A" stroke="black" stroke-width="4"/>
</svg>
