<svg width="40" height="39" viewBox="0 0 40 39" fill="none" xmlns="http://www.w3.org/2000/svg">
<path d="M17.6127 4.47249L17.6126 4.4727L17.1307 8.53456C16.6173 12.8617 13.2057 16.2733 8.87856 16.7867L4.81669 17.2687L4.81649 17.2687C1.98012 17.6055 1.98012 21.7215 4.81649 22.0584L4.81669 22.0584L8.87856 22.5403C13.2057 23.0538 16.6173 26.4654 17.1307 30.7924L17.6126 34.8543L17.6127 34.8545C17.9495 37.6909 22.0655 37.6909 22.4023 34.8545L22.4024 34.8543L22.8843 30.7924C23.3978 26.4654 26.8093 23.0538 31.1364 22.5403L35.1983 22.0584L35.1985 22.0584C38.0349 21.7215 38.0349 17.6055 35.1985 17.2687L35.1983 17.2687L31.1364 16.7867C26.8093 16.2733 23.3978 12.8617 22.8843 8.53456L22.4024 4.4727L22.4023 4.47249C22.0655 1.63612 17.9495 1.63612 17.6127 4.47249Z" fill="#F2994A" stroke="black" stroke-width="4"/>
</svg>
