<svg width="39" height="39" viewBox="0 0 39 39" fill="none" xmlns="http://www.w3.org/2000/svg">
<path d="M16.9235 4.12728L16.9235 4.12748L16.4415 8.18935C15.9281 12.5165 12.5165 15.9281 8.18941 16.4415L4.12754 16.9234L4.12734 16.9235C1.29097 17.2603 1.29097 21.3763 4.12734 21.7131L4.12754 21.7132L8.18941 22.1951C12.5165 22.7085 15.9281 26.1201 16.4415 30.4472L16.9235 34.5091L16.9235 34.5092C17.2603 37.3457 21.3764 37.3457 21.7132 34.5092L21.7132 34.5091L22.1952 30.4472C22.7086 26.1201 26.1202 22.7085 30.4473 22.1951L34.5091 21.7132L34.5093 21.7131C37.3458 21.3763 37.3458 17.2603 34.5093 16.9235L34.5091 16.9234L30.4473 16.4415C26.1202 15.9281 22.7086 12.5165 22.1952 8.18935L21.7132 4.12748L21.7132 4.12728C21.3764 1.29091 17.2604 1.29091 16.9235 4.12728Z" fill="#F2994A" stroke="black" stroke-width="4"/>
</svg>
