<svg width="197" height="142" viewBox="0 0 197 142" fill="none" xmlns="http://www.w3.org/2000/svg">
<path d="M150.351 70.7069L150.606 74.1093L153.45 72.2238C162.249 66.3903 172.07 64.9495 180.149 68.89C187.057 72.2588 191.641 79.0257 193.336 87.4826C195.031 95.9421 193.796 105.981 189.129 115.549C184.463 125.115 177.306 132.266 169.592 136.137C161.879 140.007 153.724 140.559 146.833 137.198C138.752 133.257 133.813 124.613 133.023 114.112L132.767 110.709L129.923 112.595C121.125 118.428 111.303 119.869 103.224 115.929C95.1425 111.987 90.2033 103.344 89.4139 92.8422L89.1581 89.4398L86.3143 91.3253C77.5158 97.1588 67.694 98.5995 59.615 94.6591C51.5333 90.7174 46.5942 82.074 45.8047 71.5726L45.5489 68.1702L42.7052 70.0556C33.9067 75.8892 24.0849 77.3299 16.0058 73.3895C9.11491 70.0286 4.52953 63.2622 2.83076 54.8019C1.13163 46.3398 2.35995 36.2975 7.02593 26.7308C11.6919 17.1642 18.8491 10.0136 26.5634 6.14274C34.2761 2.27272 42.4311 1.72024 49.322 5.08116C57.4037 9.02286 62.3428 17.6663 63.1323 28.1676L63.388 31.5701L66.2318 29.6846C75.0303 23.8511 84.8521 22.4103 92.9312 26.3508C101.013 30.2925 105.952 38.9359 106.741 49.4373L106.997 52.8397L109.841 50.9542C118.639 45.1207 128.461 43.68 136.54 47.6204C144.622 51.5621 149.561 60.2055 150.351 70.7069Z" fill="#3C73DA" stroke="#2C2C2C" stroke-width="4"/>
</svg>
