<svg width="167" height="312" viewBox="0 0 167 312" fill="none" xmlns="http://www.w3.org/2000/svg">
<path d="M144.72 153.819L141.427 155.582L144.72 157.345C160.827 165.969 168.95 185.068 163.107 203.1C157.265 221.055 139.45 231.749 121.344 229.255L117.64 228.744L119.272 232.108C127.253 248.571 122.548 268.811 107.299 279.929C91.9727 290.973 71.3076 289.19 58.1257 276.507L55.4282 273.911L54.7701 277.596C51.5625 295.559 35.8788 309.239 17 309.239C-1.87874 309.239 -17.5625 295.559 -20.7701 277.596L-21.4259 273.924L-24.1216 276.503C-37.3122 289.123 -58.0546 290.967 -73.2965 279.856L-73.3 279.853C-88.6184 268.738 -93.2547 248.428 -85.273 232.036L-83.6327 228.668L-87.3441 229.18C-105.45 231.674 -123.265 220.98 -129.107 203.025C-134.949 185.071 -126.83 165.97 -110.72 157.345L-107.427 155.582L-110.72 153.819C-126.83 145.193 -134.949 126.092 -129.107 108.139C-123.265 90.184 -105.45 79.4892 -87.3441 81.9841L-83.6403 82.4944L-85.2715 79.1302C-93.253 62.6683 -88.5485 42.4292 -73.3005 31.3109C-57.9746 20.2652 -37.3082 22.0483 -24.1256 34.732L-21.4282 37.3274L-20.7701 33.6423C-17.5625 15.6798 -1.87874 2 17 2C35.8788 2 51.5625 15.6798 54.7701 33.6423L55.4282 37.3274L58.1257 34.732C71.3142 22.0424 91.9809 20.1952 107.3 31.3105C122.618 42.4252 127.255 62.736 119.273 79.1272L117.633 82.4955L121.344 81.9841C139.45 79.4892 157.265 90.184 163.107 108.139C168.949 126.092 160.83 145.193 144.72 153.819Z" fill="#FFC444" stroke="#2C2C2C" stroke-width="4"/>
</svg>
