<svg width="83" height="73" viewBox="0 0 83 73" fill="none" xmlns="http://www.w3.org/2000/svg">
<path d="M33.6473 21.3004L36.3379 23.4196L36.8612 20.0348C38.0485 12.3557 42.1485 6.40187 48.186 4.02442C53.3553 1.98885 59.2459 2.84055 64.6736 6.12961C70.1031 9.41979 74.9583 15.1009 77.8472 22.4371C80.736 29.7734 81.058 37.2396 79.3296 43.3484C77.6018 49.4551 73.8735 54.0946 68.7041 56.1301C62.6666 58.5076 55.608 56.9478 49.5036 52.14L46.8129 50.0208L46.2896 53.4056C45.1024 61.0847 41.0024 67.0385 34.9649 69.416C29.7956 71.4515 23.9049 70.5998 18.4773 67.3108C13.0477 64.0206 8.19258 58.3395 5.30372 51.0032C2.41485 43.667 2.09288 36.2008 3.82127 30.092C5.54907 23.9853 9.2774 19.3458 14.4467 17.3102C20.4842 14.9328 27.5429 16.4926 33.6473 21.3004Z" fill="#1047AE" stroke="#2C2C2C" stroke-width="4"/>
</svg>
