<svg width="64" height="64" viewBox="0 0 64 64" fill="none" xmlns="http://www.w3.org/2000/svg">
<path d="M36.5826 4.0648L36.5826 4.065L33.7651 11.1711C30.4677 19.4877 21.9011 24.4614 13.0438 23.2018L5.47568 22.1255L5.47548 22.1254C2.22816 21.664 1.01597 26.2323 4.06488 27.4415L4.06507 27.4416L11.1711 30.259C19.4878 33.5564 24.4615 42.1231 23.2019 50.9803L22.1256 58.5484L22.1255 58.5486C21.664 61.796 26.2324 63.0082 27.4416 59.9592L27.4417 59.959L30.2591 52.8529C33.5565 44.5364 42.1231 39.5626 50.9804 40.8223L58.5485 41.8986L58.5486 41.8986C61.7961 42.3601 63.0083 37.7918 59.9592 36.5825L59.9591 36.5825L52.853 33.765C44.5365 30.4676 39.5627 21.901 40.8224 13.0437L41.8987 5.47561L41.8987 5.4754C42.3602 2.22809 37.7918 1.0159 36.5826 4.0648Z" fill="#F2994A" stroke="black" stroke-width="4"/>
</svg>
