<svg width="51" height="51" viewBox="0 0 51 51" fill="none" xmlns="http://www.w3.org/2000/svg">
<path d="M22.2962 4.11427L22.2962 4.11446L24.4093 9.44401C26.7972 15.4667 33.0009 19.0685 39.4152 18.1563L45.0912 17.3491L45.0914 17.3491C48.1132 16.9196 49.2412 21.1707 46.404 22.2959L46.4039 22.296L41.0743 24.4091C35.0516 26.797 31.4498 33.0007 32.362 39.4148L33.1692 45.0909L33.1692 45.0911C33.5987 48.1129 29.3476 49.241 28.2224 46.4037L28.2223 46.4035L26.1092 41.074C23.7214 35.0514 17.5177 31.4495 11.1035 32.3617L5.42743 33.169L5.42725 33.169C2.40538 33.5985 1.27735 29.3473 4.11462 28.2221L4.11478 28.2221L9.44433 26.109C15.4669 23.7211 19.0688 17.5174 18.1566 11.1032L17.3493 5.42711L17.3493 5.4269C16.9199 2.40513 21.1709 1.27713 22.2962 4.11427Z" fill="#F2994A" stroke="black" stroke-width="4"/>
</svg>
