<svg width="68" height="68" viewBox="0 0 68 68" fill="none" xmlns="http://www.w3.org/2000/svg">
<path d="M31.2134 4.47533L31.2133 4.47553L30.2695 12.4305C29.1596 21.7846 21.7846 29.1596 12.4305 30.2695L4.47553 31.2133L4.47533 31.2134C1.17489 31.6053 1.17489 36.3947 4.47533 36.7866L4.47553 36.7867L12.4305 37.7305C21.7846 38.8405 29.1596 46.2154 30.2695 55.5695L31.2133 63.5244L31.2134 63.5246C31.6053 66.8251 36.3947 66.8251 36.7866 63.5246L36.7867 63.5244L37.7305 55.5695C38.8405 46.2154 46.2154 38.8405 55.5695 37.7305L63.5244 36.7867L63.5246 36.7866C66.8251 36.3947 66.8251 31.6053 63.5246 31.2134L63.5244 31.2133L55.5695 30.2695C46.2154 29.1596 38.8405 21.7846 37.7305 12.4305L36.7867 4.47553L36.7866 4.47533C36.3947 1.17489 31.6053 1.17489 31.2134 4.47533Z" fill="#F2994A" stroke="black" stroke-width="4"/>
</svg>
