<svg width="86" height="86" viewBox="0 0 86 86" fill="none" xmlns="http://www.w3.org/2000/svg">
<path d="M50.0456 4.16429L50.0455 4.16448L46.1088 14.0935C41.3661 26.0553 29.0447 33.2091 16.3052 31.3973L5.73061 29.8934L5.73041 29.8934C2.12468 29.381 0.778766 34.4535 4.16413 35.7962L4.16433 35.7962L14.0933 39.7329C26.0552 44.4756 33.2089 56.797 31.3972 69.5364L29.8933 80.111L29.8933 80.1112C29.3808 83.7171 34.4534 85.063 35.796 81.6775L35.7961 81.6773L39.7328 71.7483C44.4754 59.7865 56.7969 52.6328 69.5363 54.4445L80.1108 55.9484L80.111 55.9484C83.7169 56.4609 85.0629 51.3884 81.6773 50.0457L81.6771 50.0456L71.7481 46.1089C59.7864 41.3663 52.6327 29.0449 54.4444 16.3053L55.9483 5.73077L55.9483 5.73056C56.4607 2.12489 51.3882 0.778857 50.0456 4.16429Z" fill="#F2994A" stroke="black" stroke-width="4"/>
</svg>
