<svg width="78" height="57" viewBox="0 0 78 57" fill="none" xmlns="http://www.w3.org/2000/svg">
<path d="M21.4215 28.3416L21.2296 30.8934L19.0968 29.4793C16.1837 27.5479 13.0503 27.1427 10.5448 28.3647C8.39888 29.4113 6.91867 31.5383 6.36318 34.3103C5.80728 37.0842 6.20674 40.42 7.77016 43.6255C9.33318 46.8302 11.7182 49.1976 14.248 50.467C16.7767 51.7358 19.3641 51.8783 21.5041 50.8346C24.0115 49.6116 25.6295 46.8865 25.8906 43.4133L26.0824 40.8615L28.2153 42.2756C31.1283 44.207 34.2618 44.6122 36.7673 43.3902C39.2747 42.1672 40.8927 39.4421 41.1538 35.969L41.3456 33.4172L43.4785 34.8313C46.3915 36.7627 49.525 37.1678 52.0305 35.9458C54.5379 34.7229 56.1559 31.9978 56.417 28.5246L56.6088 25.9728L58.7417 27.3869C61.6547 29.3183 64.7882 29.7235 67.2937 28.5015C69.4336 27.4578 70.9144 25.3311 71.4713 22.5574C72.0285 19.7823 71.6313 16.4454 70.0683 13.2407C68.5053 10.036 66.1203 7.66859 63.5904 6.39917C61.0618 5.13037 58.4743 4.9879 56.3344 6.03162C53.8269 7.25459 52.209 9.97968 51.9479 13.4528L51.756 16.0047L49.6232 14.5906C46.7101 12.6592 43.5767 12.254 41.0712 13.476C38.5637 14.699 36.9458 17.424 36.6847 20.8972L36.4928 23.449L34.36 22.0349C31.4469 20.1035 28.3135 19.6983 25.808 20.9203C23.3005 22.1433 21.6826 24.8684 21.4215 28.3416Z" fill="#3C73DA" stroke="#2C2C2C" stroke-width="3"/>
</svg>
