<svg width="42" height="80" viewBox="0 0 42 80" fill="none" xmlns="http://www.w3.org/2000/svg">
<path d="M70.9192 38.668L68.4492 39.9904L70.9192 41.3128C74.6467 43.3085 76.5249 47.7282 75.1726 51.9008C73.821 56.0516 69.7008 58.5277 65.5106 57.9503L62.7328 57.5676L63.9561 60.0907C65.8025 63.8988 64.7137 68.5808 61.1877 71.1536C57.64 73.709 52.859 73.2957 49.81 70.3621L47.7869 68.4156L47.2934 71.1793C46.551 75.3368 42.9198 78.5 38.5556 78.5C34.1915 78.5 30.5603 75.3368 29.8179 71.1793L29.326 68.4249L27.3043 70.3592C24.2492 73.2821 19.4484 73.7038 15.9268 71.1367L15.9241 71.1348C12.3822 68.5648 11.3075 63.8658 13.1541 60.0737L14.3842 57.5475L11.6007 57.931C7.40988 58.5085 3.28917 56.0317 1.93817 51.8799C0.587573 47.7293 2.46291 43.3094 6.19209 41.3128L8.66202 39.9904L6.19209 38.668C2.46291 36.6714 0.587573 32.2515 1.93817 28.1009C3.28917 23.949 7.40988 21.4722 11.6007 22.0497L14.3785 22.4324L13.1552 19.9093C11.3088 16.1011 12.3976 11.4191 15.9236 8.84638C19.4713 6.29104 24.2522 6.70427 27.3012 9.63789L29.3243 11.5845L29.8179 8.82066C30.5603 4.66318 34.1915 1.5 38.5556 1.5C42.9198 1.5 46.551 4.66318 47.2934 8.82066L47.7869 11.5845L49.81 9.63789C52.8635 6.69997 57.6445 6.27555 61.1871 8.84598C64.7291 11.4159 65.8038 16.1149 63.9572 19.907L62.7271 22.4332L65.5106 22.0497C69.7014 21.4722 73.8221 23.949 75.1731 28.1009C76.5237 32.2515 74.6484 36.6714 70.9192 38.668Z" fill="#FFC444" stroke="#2C2C2C" stroke-width="3"/>
</svg>
