<svg width="67" height="67" viewBox="0 0 67 67" fill="none" xmlns="http://www.w3.org/2000/svg">
<path d="M28.8119 4.43888L28.812 4.43907L31.7645 11.8858C35.2364 20.6424 44.2562 25.8792 53.5821 24.553L61.513 23.4251L61.5132 23.425C64.8038 22.9574 66.0321 27.5866 62.9426 28.8119L62.9424 28.812L55.4956 31.7645C46.739 35.2363 41.5022 44.2561 42.8285 53.5819L43.9564 61.5128L43.9564 61.513C44.4241 64.8037 39.7949 66.0321 38.5695 62.9424L38.5695 62.9422L35.6169 55.4955C32.1451 46.739 23.1253 41.5022 13.7995 42.8284L5.86862 43.9563L5.86844 43.9564C2.57773 44.424 1.34938 39.7948 4.43905 38.5695L4.43921 38.5694L11.886 35.6169C20.6425 32.1451 25.8793 23.1253 24.553 13.7994L23.4251 5.86847L23.4251 5.86827C22.9575 2.5777 27.5866 1.34937 28.8119 4.43888Z" fill="#F2994A" stroke="black" stroke-width="4"/>
</svg>
