<svg width="78" height="80" viewBox="0 0 78 80" fill="none" xmlns="http://www.w3.org/2000/svg">
<path d="M70.6832 38.2272L67.3899 39.9904L70.6832 41.7536C74.2007 43.6368 75.9727 47.8069 74.6976 51.7444C73.4231 55.6613 69.5349 58.0001 65.5788 57.455L61.8751 56.9446L63.5062 60.3088C65.2485 63.9024 64.2208 68.3206 60.8943 70.7487C57.5452 73.1602 53.0336 72.7698 50.1567 70.0018L47.4592 67.4064L46.8012 71.0915C46.1004 75.0159 42.6721 78 38.5556 78C34.4392 78 31.0109 75.0159 30.3101 71.0915L29.6543 67.4188L26.9586 69.9979C24.0737 72.7581 19.542 73.1533 16.2214 70.7327L16.2178 70.7301C12.8764 68.3056 11.861 63.8712 13.6036 60.2926L15.2438 56.9243L11.5324 57.4357C7.57642 57.9808 3.68818 55.6421 2.41363 51.7252C1.13962 47.8099 2.90771 43.6384 6.42809 41.7536L9.72133 39.9904L6.42809 38.2272C2.90771 36.3424 1.13962 32.1708 2.41363 28.2556C3.68818 24.3387 7.57642 21.9999 11.5324 22.545L15.2362 23.0554L13.6051 19.6912C11.8627 16.0975 12.8905 11.6792 16.2172 9.25112C19.5662 6.83984 24.0777 7.23024 26.9545 9.99819L29.652 12.5936L30.3101 8.90855C31.0109 4.98414 34.4392 2 38.5556 2C42.6721 2 46.1004 4.98414 46.8012 8.90855L47.4592 12.5936L50.1567 9.99819C53.0395 7.22446 57.5512 6.8256 60.8935 9.25067C64.2349 11.6751 65.2503 16.1095 63.5077 19.6881L61.8675 23.0564L65.5788 22.545C69.5349 21.9999 73.4231 24.3387 74.6976 28.2556C75.9716 32.1708 74.2036 36.3424 70.6832 38.2272Z" fill="#FFC444" stroke="#2C2C2C" stroke-width="4"/>
</svg>
