<svg width="31" height="32" viewBox="0 0 31 32" fill="none" xmlns="http://www.w3.org/2000/svg">
<path d="M27.9429 14.6738L25.4729 15.9961L27.9429 17.3185C29.0568 17.915 29.6169 19.2353 29.2131 20.4821C28.81 21.7194 27.5805 22.4613 26.3271 22.2886L23.5493 21.9058L24.7726 24.4289C25.3239 25.5659 24.9983 26.9638 23.947 27.7327C22.8854 28.4958 21.4578 28.3716 20.548 27.4963L18.5249 25.5497L18.0314 28.3135C17.8093 29.557 16.7221 30.5 15.4223 30.5C14.1224 30.5 13.0352 29.557 12.8131 28.3135L12.3213 25.5591L10.2995 27.4934C9.38375 28.3695 7.94788 28.4906 6.9009 27.7274L6.8982 27.7255C5.84241 26.9594 5.5193 25.556 6.07078 24.4235L7.30095 21.8973L4.51742 22.2808C3.26373 22.4536 2.03389 21.7113 1.6311 20.4735C1.22871 19.2368 1.7858 17.916 2.90164 17.3185L5.37157 15.9961L2.90164 14.6738C1.7858 14.0763 1.22871 12.7554 1.6311 11.5188C2.03389 10.281 3.26373 9.53869 4.51742 9.71145L7.29524 10.0942L6.0719 7.57108C5.52062 6.43406 5.84625 5.03605 6.89768 4.26723C7.95921 3.50424 9.38674 3.62839 10.2965 4.5037L12.3196 6.45027L12.8131 3.68648C13.0352 2.443 14.1224 1.5 15.4223 1.5C16.7221 1.5 17.8093 2.443 18.0314 3.68648L18.5249 6.45027L20.548 4.5037C21.4622 3.62408 22.8899 3.50031 23.9463 4.26684C25.0021 5.03291 25.3252 6.43626 24.7737 7.56878L23.5436 10.095L26.3271 9.71145C27.5808 9.53869 28.8106 10.281 29.2134 11.5188C29.6158 12.7555 29.0587 14.0763 27.9429 14.6738Z" fill="#FFC444" stroke="#2C2C2C" stroke-width="3"/>
</svg>
