<svg width="34" height="34" viewBox="0 0 34 34" fill="none" xmlns="http://www.w3.org/2000/svg">
<path d="M15.3805 12.3777L6.36166 8.17214C6.00111 8.00401 5.58853 7.986 5.2147 8.12206C4.84087 8.25813 4.5364 8.53712 4.36827 8.89767L2.63336 12.6182C2.46523 12.9788 2.44722 13.3913 2.58328 13.7652C2.71934 14.139 2.99834 14.4435 3.35889 14.6116L12.3777 18.8171L8.17217 27.836C7.82207 28.5868 8.1469 29.4793 8.89771 29.8294L12.6182 31.5643C12.9788 31.7324 13.3914 31.7505 13.7652 31.6144C14.139 31.4783 14.4435 31.1993 14.6116 30.8388L18.8171 21.8199L27.8361 26.0255C28.1966 26.1936 28.6092 26.2116 28.983 26.0755C29.3568 25.9395 29.6613 25.6605 29.8294 25.2999L31.5643 21.5794C31.9145 20.8286 31.5896 19.9361 30.8388 19.586L21.8199 15.3804L26.0255 6.36163C26.1936 6.00107 26.2117 5.5885 26.0756 5.21466C25.9395 4.84083 25.6605 4.53636 25.3 4.36823L21.5795 2.63331C20.8287 2.2832 19.9362 2.60803 19.5861 3.35884L15.3805 12.3777Z" fill="#929CF1" stroke="#2C2C2C" stroke-width="3" stroke-linejoin="round"/>
</svg>
