<svg width="21" height="18" viewBox="0 0 21 18" fill="none" xmlns="http://www.w3.org/2000/svg">
<path d="M8.81611 2.92198L8.81608 2.92217L8.58011 4.51315C8.40636 5.68465 7.1304 6.95795 5.02478 7.15782L3.03605 7.34659L3.03592 7.34661C2.29324 7.41717 1.5 8.01385 1.5 9C1.5 9.98615 2.29324 10.5828 3.03592 10.6534L3.03605 10.6534L5.02478 10.8422C7.1304 11.0421 8.40636 12.3154 8.58011 13.4868L8.81608 15.0778L8.81611 15.078C8.98823 16.2376 10.0545 16.5 10.5 16.5C10.9455 16.5 12.0118 16.2376 12.1839 15.078L12.1839 15.0778L12.4199 13.4868C12.5936 12.3153 13.8696 11.0421 15.9752 10.8422L17.9639 10.6534L17.964 10.6534C18.7066 10.5829 19.5 9.9863 19.5 9C19.5 8.0137 18.7066 7.41714 17.964 7.3466L17.9639 7.34659L15.9752 7.15782C13.8696 6.95795 12.5936 5.68466 12.4199 4.51315L12.1839 2.92217L12.1839 2.92198C12.0117 1.76224 10.9453 1.5 10.5 1.5C10.0547 1.5 8.98827 1.76224 8.81611 2.92198Z" fill="#F2994A" stroke="black" stroke-width="3"/>
</svg>
