<svg width="28" height="28" viewBox="0 0 28 28" fill="none" xmlns="http://www.w3.org/2000/svg">
<path d="M20.6031 3.92581L20.603 3.92595L19.6024 6.97001C18.5268 10.2421 19.8335 13.825 22.7631 15.6365L25.4884 17.3217L25.4886 17.3218C27.3243 18.4571 26.0116 21.277 23.961 20.6032L23.9608 20.6031L20.9168 19.6025C17.6446 18.5269 14.0618 19.8336 12.2503 22.7631L10.5651 25.4885L10.5651 25.4886C9.42968 27.3245 6.60977 26.0117 7.28365 23.961L7.2837 23.9609L8.28431 20.9169C9.3599 17.6448 8.05321 14.0619 5.12366 12.2504L2.39829 10.5652L2.39818 10.5652C0.562335 9.42978 1.87507 6.60988 3.92575 7.28376L3.92588 7.2838L6.96993 8.28442C10.242 9.36 13.8249 8.05332 15.6364 5.12374L17.3216 2.39837L17.3217 2.39824C18.457 0.562467 21.2769 1.87518 20.6031 3.92581Z" fill="#F2994A" stroke="black" stroke-width="3"/>
</svg>
