<svg width="28" height="28" viewBox="0 0 28 28" fill="none" xmlns="http://www.w3.org/2000/svg">
<path d="M7.28366 3.92581L7.28371 3.92595L8.28432 6.97001C9.35992 10.2421 8.05324 13.825 5.12366 15.6365L2.39829 17.3217L2.39816 17.3218C0.562387 18.4571 1.8751 21.277 3.92573 20.6032L3.92588 20.6031L6.96993 19.6025C10.2421 18.5269 13.825 19.8336 15.6364 22.7631L17.3216 25.4885L17.3217 25.4886C18.457 27.3245 21.277 26.0117 20.6031 23.961L20.603 23.9609L19.6024 20.9169C18.5268 17.6448 19.8335 14.0619 22.7631 12.2504L25.4884 10.5652L25.4885 10.5652C27.3244 9.42978 26.0116 6.60988 23.961 7.28376L23.9608 7.2838L20.9168 8.28442C17.6447 9.36 14.0618 8.05332 12.2503 5.12374L10.5651 2.39837L10.5651 2.39824C9.42969 0.562467 6.60983 1.87518 7.28366 3.92581Z" fill="#F2994A" stroke="black" stroke-width="3"/>
</svg>
