<svg width="58" height="58" viewBox="0 0 58 58" fill="none" xmlns="http://www.w3.org/2000/svg">
<path d="M44.9003 22.0096L43.019 24.0741L45.7791 24.5022C46.9267 24.6802 48.0657 25.0191 49.1569 25.5415C55.0495 28.3621 57.5396 35.4249 54.719 41.3175C51.8984 47.2101 44.8356 49.7002 38.943 46.8796C37.8518 46.3572 36.8734 45.6826 36.0151 44.9005L33.9506 43.0192L33.5225 45.7793C33.3445 46.9268 33.0055 48.0658 32.4832 49.157C29.6626 55.0496 22.5998 57.5397 16.7072 54.7191C10.8146 51.8985 8.32449 44.8357 11.1451 38.9431C11.6675 37.8519 12.342 36.8735 13.1242 36.0152L15.0055 33.9507L12.2454 33.5226C11.0978 33.3446 9.95883 33.0057 8.86762 32.4833C2.97502 29.6627 0.484924 22.5999 3.30555 16.7073C6.12617 10.8147 13.189 8.32463 19.0816 11.1453C20.1728 11.6676 21.1511 12.3422 22.0095 13.1243L24.074 15.0056L24.5021 12.2455C24.6801 11.098 25.019 9.95899 25.5413 8.86777C28.362 2.97517 35.4247 0.485075 41.3173 3.3057C47.2099 6.12632 49.7 13.1891 46.8794 19.0817C46.3571 20.1729 45.6825 21.1513 44.9003 22.0096ZM21.6686 25.4972C19.725 29.5576 21.4437 34.4325 25.5041 36.3761C29.5645 38.3197 34.4394 36.601 36.383 32.5406C38.3266 28.4802 36.6079 23.6052 32.5475 21.6616C28.4871 19.718 23.6121 21.4368 21.6686 25.4972Z" fill="#929CF1" stroke="black" stroke-width="3"/>
</svg>
