<svg width="34" height="34" viewBox="0 0 34 34" fill="none" xmlns="http://www.w3.org/2000/svg">
<path d="M15.3049 3.26257L15.305 3.26271L16.6828 6.73787C18.2065 10.5808 22.165 12.8791 26.2578 12.297L29.9589 11.7707L29.959 11.7707C32.1591 11.458 32.9804 14.5531 30.9147 15.3723L30.9146 15.3724L27.4394 16.7502C23.5965 18.2739 21.2982 22.2323 21.8803 26.3251L22.4066 30.0262L22.4066 30.0263C22.7193 32.2265 19.6242 33.0478 18.805 30.982L18.8049 30.9819L17.4271 27.5068C15.9034 23.6638 11.945 21.3656 7.85219 21.9476L4.15109 22.474L4.15096 22.474C1.95083 22.7867 1.12955 19.6916 3.19527 18.8723L3.19539 18.8723L6.67055 17.4944C10.5135 15.9708 12.8117 12.0123 12.2297 7.91951L11.7033 4.21841L11.7033 4.21825C11.3906 2.0182 14.4857 1.19693 15.3049 3.26257Z" fill="#F2994A" stroke="black" stroke-width="3"/>
</svg>
