<svg width="26" height="26" viewBox="0 0 26 26" fill="none" xmlns="http://www.w3.org/2000/svg">
<path d="M14.0823 3.17241L14.0823 3.17255L13.0981 5.6548C12.0828 8.21566 9.44493 9.74716 6.71758 9.35929L4.07394 8.98332L4.07379 8.9833C1.99976 8.68855 1.22559 11.6063 3.17285 12.3786L3.173 12.3787L5.65525 13.3628C8.21611 14.3782 9.74761 17.016 9.35975 19.7433L8.98378 22.387L8.98376 22.3871C8.68898 24.4612 11.6068 25.2353 12.3791 23.288L12.3791 23.2879L13.3633 20.8056C14.3786 18.2448 17.0164 16.7133 19.7438 17.1012L22.3874 17.4771L22.3875 17.4772C24.4616 17.7719 25.2358 14.8542 23.2885 14.0819L23.2883 14.0818L20.8061 13.0976C18.2453 12.0823 16.7138 9.44448 17.1016 6.71713L17.4776 4.07349L17.4776 4.07334C17.7724 1.99936 14.8546 1.2251 14.0823 3.17241Z" fill="#F2994A" stroke="black" stroke-width="3"/>
</svg>
